<svg width="431" height="389" viewBox="0 0 431 389" fill="none" xmlns="http://www.w3.org/2000/svg">
<path opacity="0.918" fill-rule="evenodd" clip-rule="evenodd" d="M311.5 0.5C312.833 0.5 314.167 0.5 315.5 0.5C316.833 3.16667 318.167 3.16667 319.5 0.5C320.833 0.5 322.167 0.5 323.5 0.5C323.804 1.14987 324.137 1.81654 324.5 2.5C323.5 3.83333 322.5 5.16667 321.5 6.5C325.29 9.0046 325.29 11.3379 321.5 13.5C320.167 12.5 318.833 11.5 317.5 10.5C316.167 11.5 314.833 12.5 313.5 13.5C310.947 11.2955 310.947 8.96215 313.5 6.5C311.914 4.82733 311.247 2.82733 311.5 0.5Z" fill="#FFE89F"/>
<path opacity="0.969" fill-rule="evenodd" clip-rule="evenodd" d="M326.5 24.5C335.171 24.1785 337.504 27.8452 333.5 35.5C325.878 38.0416 322.711 35.3749 324 27.5C324.698 26.3094 325.531 25.3094 326.5 24.5Z" fill="#9A64FC"/>
<path opacity="0.969" fill-rule="evenodd" clip-rule="evenodd" d="M228.5 25.5C240.319 24.4849 245.486 29.8182 244 41.5C240.677 47.9081 235.511 50.0748 228.5 48C222.092 44.6772 219.925 39.5105 222 32.5C223.694 29.6424 225.861 27.309 228.5 25.5Z" fill="#FC64C0"/>
<path fill-rule="evenodd" clip-rule="evenodd" d="M230.5 31.5C238.818 31.9869 240.485 35.4869 235.5 42C227.088 41.8117 225.421 38.3117 230.5 31.5Z" fill="#FFF5FB"/>
<path opacity="0.846" fill-rule="evenodd" clip-rule="evenodd" d="M376.5 39.5C378.17 39.7512 379.67 40.4178 381 41.5C381.498 44.4816 381.665 47.4816 381.5 50.5C384.518 50.3354 387.518 50.502 390.5 51C393.167 53.3333 393.167 55.6667 390.5 58C387.518 58.498 384.518 58.6646 381.5 58.5C381.665 61.5184 381.498 64.5184 381 67.5C378.667 70.1667 376.333 70.1667 374 67.5C373.502 64.5184 373.335 61.5184 373.5 58.5C370.482 58.6646 367.482 58.498 364.5 58C361.712 55.2368 362.045 52.9034 365.5 51C368.146 50.5026 370.813 50.3359 373.5 50.5C373.336 47.8127 373.503 45.146 374 42.5C374.698 41.3094 375.531 40.3094 376.5 39.5Z" fill="#EDF5FD"/>
<path opacity="0.997" fill-rule="evenodd" clip-rule="evenodd" d="M191.5 71.5C194.167 80.1674 194.167 88.8341 191.5 97.5C189.692 100.436 187.859 103.436 186 106.5C185.349 108.235 185.515 109.902 186.5 111.5C185.078 112.547 183.578 112.547 182 111.5C179.367 112.644 176.867 113.977 174.5 115.5C166.556 119.474 158.223 120.474 149.5 118.5C151.474 110.616 148.807 105.116 141.5 102C136.845 101.501 132.179 101.334 127.5 101.5C120.051 84.8386 122.718 70.0052 135.5 57C150.833 47 166.167 47 181.5 57C185.834 61.1635 189.168 65.9969 191.5 71.5Z" fill="#5BCCFC"/>
<path opacity="0.929" fill-rule="evenodd" clip-rule="evenodd" d="M78.5 52.5C85.6027 51.2018 89.6027 54.0351 90.5 61C90.3333 66.5 87.5 69.3333 82 69.5C74.8749 68.602 72.2083 64.602 74 57.5C75.025 55.313 76.525 53.6464 78.5 52.5Z" fill="#B5D7F6"/>
<path fill-rule="evenodd" clip-rule="evenodd" d="M147.5 66.5C149.672 64.5999 152.5 66 153.5 68.5C156.5 68 160.5 68.5 162.5 71C165.223 74.0568 167.556 77.3901 169.5 81C171.833 82.1667 174.167 83.3333 176.5 84.5C177.583 85.365 177.749 86.365 177 87.5C170.25 91.7922 163.417 95.9589 156.5 100C148.853 104.194 146.519 102.027 149.5 93.5C146.999 89.4955 145.332 85.1622 144.5 80.5C144.519 77.3007 145.519 74.4674 147.5 72C146.245 70.1132 146.245 68.2799 147.5 66.5Z" fill="#FCFEFE"/>
<path opacity="0.987" fill-rule="evenodd" clip-rule="evenodd" d="M352.5 140.5C338.721 148.226 324.721 155.726 310.5 163C309.167 164.333 309.167 165.667 310.5 167C317.412 169.642 324.412 171.642 331.5 173C344.333 162.167 357.167 151.333 370 140.5C360.702 152.83 350.868 164.996 340.5 177C349.303 180.098 357.97 183.265 366.5 186.5C368.802 244.404 345.468 288.571 296.5 319C252.833 341 209.167 341 165.5 319C116.154 288.815 93.321 244.649 97 186.5C97.9921 176.701 100.159 167.201 103.5 158C92.6588 157.83 81.9921 157.33 71.5 156.5C86.837 156.333 102.17 156.5 117.5 157C122.048 160.388 126.714 163.555 131.5 166.5C131.56 167.043 131.893 167.376 132.5 167.5C133.487 164.232 133.82 160.898 133.5 157.5C136.385 157.806 139.052 157.473 141.5 156.5C145.443 155.724 147.943 153.391 149 149.5C149.5 139.172 149.666 128.839 149.5 118.5C158.223 120.474 166.556 119.474 174.5 115.5C174.5 138.5 174.5 161.5 174.5 184.5C169.5 189.167 164.5 193.833 159.5 198.5C158.336 227.664 158.17 256.997 159 286.5C159.374 288.491 160.207 290.158 161.5 291.5C162.429 292.315 163.429 293.148 164.5 294C209.833 294.667 255.167 294.667 300.5 294C302.491 293.626 304.158 292.793 305.5 291.5C306.793 290.158 307.626 288.491 308 286.5C308.83 256.997 308.664 227.664 307.5 198.5C302.5 193.833 297.5 189.167 292.5 184.5C292.83 165.659 292.497 146.993 291.5 128.5C281.833 118.167 271.833 108.167 261.5 98.5C238.339 97.5025 215.006 97.1691 191.5 97.5C194.167 88.8341 194.167 80.1674 191.5 71.5C261.912 56.2803 315.578 79.2803 352.5 140.5Z" fill="#EEF1FB"/>
<path fill-rule="evenodd" clip-rule="evenodd" d="M169.5 95.5C172.139 97.838 171.806 100.005 168.5 102C166.044 102.946 164.044 102.446 162.5 100.5C164.724 98.566 167.058 96.8994 169.5 95.5Z" fill="#F3FBFE"/>
<path fill-rule="evenodd" clip-rule="evenodd" d="M191.5 97.5C215.006 97.1691 238.339 97.5025 261.5 98.5C257.2 122.866 267.2 132.866 291.5 128.5C292.497 146.993 292.83 165.659 292.5 184.5C292.5 192.833 292.5 201.167 292.5 209.5C279.13 218.18 265.797 226.847 252.5 235.5C248.222 237.977 243.888 240.477 239.5 243C236.262 244.368 232.928 244.701 229.5 244C224.445 241.143 219.445 238.309 214.5 235.5C201.203 226.847 187.87 218.18 174.5 209.5C174.5 201.167 174.5 192.833 174.5 184.5C174.5 161.5 174.5 138.5 174.5 115.5C176.867 113.977 179.367 112.644 182 111.5C183.578 112.547 185.078 112.547 186.5 111.5C185.515 109.902 185.349 108.235 186 106.5C187.859 103.436 189.692 100.436 191.5 97.5Z" fill="#FEFEFE"/>
<path fill-rule="evenodd" clip-rule="evenodd" d="M261.5 98.5C271.833 108.167 281.833 118.167 291.5 128.5C267.2 132.866 257.2 122.866 261.5 98.5Z" fill="#C5CDE6"/>
<path opacity="0.997" fill-rule="evenodd" clip-rule="evenodd" d="M127.5 101.5C132.179 101.334 136.845 101.501 141.5 102C148.807 105.116 151.474 110.616 149.5 118.5C149.666 128.839 149.5 139.172 149 149.5C147.943 153.391 145.443 155.724 141.5 156.5C138.5 156.5 135.5 156.5 132.5 156.5C132.813 160.042 132.479 163.375 131.5 166.5C126.714 163.555 122.048 160.388 117.5 157C102.17 156.5 86.837 156.333 71.5 156.5C68.3252 156.16 66.1585 154.493 65 151.5C64.3333 136.833 64.3333 122.167 65 107.5C65.7845 105.714 66.9512 104.214 68.5 103C88.099 101.537 107.766 101.037 127.5 101.5Z" fill="#FFE697"/>
<path fill-rule="evenodd" clip-rule="evenodd" d="M192.5 115.5C208.503 115.333 224.503 115.5 240.5 116C241.833 117.667 241.833 119.333 240.5 121C224.5 121.667 208.5 121.667 192.5 121C191.248 119.172 191.248 117.339 192.5 115.5Z" fill="#B1D5F6"/>
<path fill-rule="evenodd" clip-rule="evenodd" d="M411.5 117.5C413.827 117.247 415.827 117.914 417.5 119.5C419.173 117.914 421.173 117.247 423.5 117.5C423.753 119.827 423.086 121.827 421.5 123.5C423.086 125.173 423.753 127.173 423.5 129.5C421.173 129.753 419.173 129.086 417.5 127.5C415.827 129.086 413.827 129.753 411.5 129.5C411.247 127.173 411.914 125.173 413.5 123.5C411.914 121.827 411.247 119.827 411.5 117.5Z" fill="#77D3FD"/>
<path fill-rule="evenodd" clip-rule="evenodd" d="M81.5 123.5C87.8302 122.666 90.6635 125.333 90 131.5C86.3333 135.5 82.6667 135.5 79 131.5C78.0182 128.225 78.8515 125.559 81.5 123.5Z" fill="#FCFAFE"/>
<path fill-rule="evenodd" clip-rule="evenodd" d="M103.5 123.5C109.83 122.666 112.663 125.333 112 131.5C108.333 135.5 104.667 135.5 101 131.5C100.018 128.225 100.852 125.559 103.5 123.5Z" fill="#FCFAFE"/>
<path fill-rule="evenodd" clip-rule="evenodd" d="M125.5 123.5C131.83 122.666 134.663 125.333 134 131.5C130.333 135.5 126.667 135.5 123 131.5C122.018 128.225 122.851 125.559 125.5 123.5Z" fill="#FCFAFE"/>
<path fill-rule="evenodd" clip-rule="evenodd" d="M192.5 126.5C203.172 126.333 213.839 126.5 224.5 127C225.833 128.667 225.833 130.333 224.5 132C213.833 132.667 203.167 132.667 192.5 132C191.248 130.172 191.248 128.339 192.5 126.5Z" fill="#B1D5F6"/>
<path opacity="0.997" fill-rule="evenodd" clip-rule="evenodd" d="M366.5 186.5C357.97 183.265 349.303 180.098 340.5 177C350.868 164.996 360.702 152.83 370 140.5C357.167 151.333 344.333 162.167 331.5 173C324.412 171.642 317.412 169.642 310.5 167C309.167 165.667 309.167 164.333 310.5 163C324.721 155.726 338.721 148.226 352.5 140.5C361.692 135.494 371.026 130.661 380.5 126C382.134 125.506 383.801 125.34 385.5 125.5C383.276 146.237 380.442 166.903 377 187.5C373.394 188.763 369.894 188.43 366.5 186.5Z" fill="#34ABDE"/>
<path opacity="0.968" fill-rule="evenodd" clip-rule="evenodd" d="M392.5 146.5C396.815 145.683 399.149 147.349 399.5 151.5C397.297 170.828 395.13 190.161 393 209.5C392.521 211.646 391.188 212.646 389 212.5C382.108 210.536 375.274 208.369 368.5 206C367.231 203.861 367.231 201.695 368.5 199.5C369.293 199.069 370.127 198.735 371 198.5C375.759 199.975 380.426 201.641 385 203.5C387.61 184.508 390.11 165.508 392.5 146.5Z" fill="#FFE696"/>
<path fill-rule="evenodd" clip-rule="evenodd" d="M192.5 148.5C219.502 148.333 246.502 148.5 273.5 149C274.833 150.667 274.833 152.333 273.5 154C246.5 154.667 219.5 154.667 192.5 154C191.248 152.172 191.248 150.339 192.5 148.5Z" fill="#B0D5F6"/>
<path opacity="0.951" fill-rule="evenodd" clip-rule="evenodd" d="M0.5 164.5C0.5 162.5 0.5 160.5 0.5 158.5C3.81547 155.006 7.48214 154.673 11.5 157.5C14.0416 165.122 11.3749 168.289 3.5 167C2.30943 166.302 1.30943 165.469 0.5 164.5Z" fill="#FFE592"/>
<path fill-rule="evenodd" clip-rule="evenodd" d="M141.5 156.5C139.052 157.473 136.385 157.806 133.5 157.5C133.82 160.898 133.487 164.232 132.5 167.5C131.893 167.376 131.56 167.043 131.5 166.5C132.479 163.375 132.813 160.042 132.5 156.5C135.5 156.5 138.5 156.5 141.5 156.5Z" fill="#ECD58B"/>
<path fill-rule="evenodd" clip-rule="evenodd" d="M192.5 159.5C217.169 159.333 241.836 159.5 266.5 160C267.833 161.667 267.833 163.333 266.5 165C241.833 165.667 217.167 165.667 192.5 165C191.248 163.172 191.248 161.339 192.5 159.5Z" fill="#B0D5F6"/>
<path fill-rule="evenodd" clip-rule="evenodd" d="M192.5 170.5C219.502 170.333 246.502 170.5 273.5 171C274.833 172.667 274.833 174.333 273.5 176C246.5 176.667 219.5 176.667 192.5 176C191.248 174.172 191.248 172.339 192.5 170.5Z" fill="#B0D5F6"/>
<path opacity="0.824" fill-rule="evenodd" clip-rule="evenodd" d="M66.5 177.5C68.8273 177.247 70.8273 177.914 72.5 179.5C74.9621 176.947 77.2955 176.947 79.5 179.5C78.5 180.833 77.5 182.167 76.5 183.5C80.2901 186.005 80.2901 188.338 76.5 190.5C75.1667 189.5 73.8333 188.5 72.5 187.5C71.084 189.139 69.4174 189.973 67.5 190C66.1337 187.618 66.467 185.452 68.5 183.5C66.9137 181.827 66.2471 179.827 66.5 177.5Z" fill="#C7CFEB"/>
<path fill-rule="evenodd" clip-rule="evenodd" d="M337.5 180.5C341.768 182.09 346.101 183.59 350.5 185C347.331 189.543 343.831 193.709 340 197.5C339.228 197.355 338.561 197.022 338 196.5C337.501 191.177 337.334 185.844 337.5 180.5Z" fill="#31A8DB"/>
<path fill-rule="evenodd" clip-rule="evenodd" d="M174.5 184.5C174.5 192.833 174.5 201.167 174.5 209.5C170.696 206.761 166.696 204.261 162.5 202C160.937 201.241 159.937 200.074 159.5 198.5C164.5 193.833 169.5 189.167 174.5 184.5Z" fill="#0957C9"/>
<path fill-rule="evenodd" clip-rule="evenodd" d="M292.5 184.5C297.5 189.167 302.5 193.833 307.5 198.5C307.063 200.074 306.063 201.241 304.5 202C300.304 204.261 296.304 206.761 292.5 209.5C292.5 201.167 292.5 192.833 292.5 184.5Z" fill="#0957C9"/>
<path fill-rule="evenodd" clip-rule="evenodd" d="M192.5 186.5C213.503 186.333 234.503 186.5 255.5 187C256.833 188.667 256.833 190.333 255.5 192C234.5 192.667 213.5 192.667 192.5 192C191.248 190.172 191.248 188.339 192.5 186.5Z" fill="#B0D5F6"/>
<path fill-rule="evenodd" clip-rule="evenodd" d="M192.5 197.5C219.502 197.333 246.502 197.5 273.5 198C274.833 199.667 274.833 201.333 273.5 203C246.5 203.667 219.5 203.667 192.5 203C191.248 201.172 191.248 199.339 192.5 197.5Z" fill="#B0D5F6"/>
<path fill-rule="evenodd" clip-rule="evenodd" d="M159.5 198.5C159.937 200.074 160.937 201.241 162.5 202C166.696 204.261 170.696 206.761 174.5 209.5C187.87 218.18 201.203 226.847 214.5 235.5C196.207 253.463 178.541 272.129 161.5 291.5C160.207 290.158 159.374 288.491 159 286.5C158.17 256.997 158.336 227.664 159.5 198.5Z" fill="#3988FF"/>
<path fill-rule="evenodd" clip-rule="evenodd" d="M307.5 198.5C308.664 227.664 308.83 256.997 308 286.5C307.626 288.491 306.793 290.158 305.5 291.5C288.459 272.129 270.793 253.463 252.5 235.5C265.797 226.847 279.13 218.18 292.5 209.5C296.304 206.761 300.304 204.261 304.5 202C306.063 201.241 307.063 200.074 307.5 198.5Z" fill="#3988FF"/>
<path opacity="0.98" fill-rule="evenodd" clip-rule="evenodd" d="M42.5 223.5C52.6591 222.158 56.8257 226.491 55 236.5C52.1034 241.155 47.9367 242.655 42.5 241C37.8451 238.103 36.3451 233.937 38 228.5C39.025 226.313 40.525 224.646 42.5 223.5Z" fill="#7E79F9"/>
<path fill-rule="evenodd" clip-rule="evenodd" d="M44.5 229.5C49.1585 229.015 50.4919 230.848 48.5 235C43.7282 235.81 42.3948 233.977 44.5 229.5Z" fill="#F0EFFE"/>
<path opacity="0.986" fill-rule="evenodd" clip-rule="evenodd" d="M402.5 229.5C412.658 228.157 416.825 232.49 415 242.5C409.667 247.833 404.333 247.833 399 242.5C397.539 237.326 398.706 232.993 402.5 229.5Z" fill="#FD67C1"/>
<path fill-rule="evenodd" clip-rule="evenodd" d="M214.5 235.5C219.445 238.309 224.445 241.143 229.5 244C232.928 244.701 236.262 244.368 239.5 243C243.888 240.477 248.222 237.977 252.5 235.5C270.793 253.463 288.459 272.129 305.5 291.5C304.158 292.793 302.491 293.626 300.5 294C255.167 294.667 209.833 294.667 164.5 294C163.429 293.148 162.429 292.315 161.5 291.5C178.541 272.129 196.207 253.463 214.5 235.5Z" fill="#1C78FF"/>
<path opacity="0.992" fill-rule="evenodd" clip-rule="evenodd" d="M410.5 295.5C425.653 293.819 432.153 300.486 430 315.5C425.936 323.61 419.436 326.443 410.5 324C402.39 319.936 399.557 313.436 402 304.5C403.688 300.315 406.521 297.315 410.5 295.5Z" fill="#68CFFC"/>
<path opacity="0.97" fill-rule="evenodd" clip-rule="evenodd" d="M106.5 299.5C109.187 299.336 111.854 299.503 114.5 300C119 305.833 123.5 311.667 128 317.5C142.98 332.908 161.146 342.408 182.5 346C186.944 349.712 187.444 353.879 184 358.5C182.023 359.905 179.857 360.905 177.5 361.5C145.679 356.479 121.179 340.479 104 313.5C101.418 308.12 102.251 303.453 106.5 299.5Z" fill="#FFACDE"/>
<path fill-rule="evenodd" clip-rule="evenodd" d="M412.5 301.5C420.545 301.048 424.378 304.714 424 312.5C418.581 320.41 413.248 320.41 408 312.5C407.333 310.5 407.333 308.5 408 306.5C409.707 304.963 411.207 303.296 412.5 301.5Z" fill="#FBFDFE"/>
<path opacity="0.969" fill-rule="evenodd" clip-rule="evenodd" d="M69.5 304.5C78.1709 304.178 80.5042 307.845 76.5 315.5C68.8776 318.042 65.7109 315.375 67 307.5C67.6979 306.309 68.5313 305.309 69.5 304.5Z" fill="#9A64FC"/>
<path fill-rule="evenodd" clip-rule="evenodd" d="M323.5 315.5C326.755 315.014 329.422 316.014 331.5 318.5C333.578 316.014 336.245 315.014 339.5 315.5C339.986 318.755 338.986 321.422 336.5 323.5C338.986 325.578 339.986 328.245 339.5 331.5C336.245 331.986 333.578 330.986 331.5 328.5C329.422 330.986 326.755 331.986 323.5 331.5C323.014 328.245 324.014 325.578 326.5 323.5C324.014 321.422 323.014 318.755 323.5 315.5Z" fill="#C3CCE9"/>
<path fill-rule="evenodd" clip-rule="evenodd" d="M95.5 321.5C102.158 320.344 104.158 322.844 101.5 329C94.7496 330.469 92.7496 327.969 95.5 321.5Z" fill="#FFE698"/>
<path opacity="0.799" fill-rule="evenodd" clip-rule="evenodd" d="M97.5 357.5C100.167 358.833 102.833 358.833 105.5 357.5C104.167 360.167 104.167 362.833 105.5 365.5C102.833 364.167 100.167 364.167 97.5 365.5C98.8333 362.833 98.8333 360.167 97.5 357.5Z" fill="#C1DEF8"/>
<path opacity="0.969" fill-rule="evenodd" clip-rule="evenodd" d="M234.5 388.5C233.167 388.5 231.833 388.5 230.5 388.5C230.5 386.5 230.5 384.5 230.5 382.5C228.5 382.5 226.5 382.5 224.5 382.5C224.5 381.167 224.5 379.833 224.5 378.5C226.5 378.5 228.5 378.5 230.5 378.5C230.5 376.5 230.5 374.5 230.5 372.5C231.833 372.5 233.167 372.5 234.5 372.5C234.5 374.5 234.5 376.5 234.5 378.5C236.5 378.5 238.5 378.5 240.5 378.5C240.5 379.833 240.5 381.167 240.5 382.5C238.5 382.5 236.5 382.5 234.5 382.5C234.5 384.5 234.5 386.5 234.5 388.5Z" fill="#837DFA"/>
<path fill-rule="evenodd" clip-rule="evenodd" d="M32.5 293C38.8513 293 44 287.851 44 281.5C44 275.149 38.8513 270 32.5 270C26.1487 270 21 275.149 21 281.5C21 287.851 26.1487 293 32.5 293ZM32.5 286C34.9853 286 37 283.985 37 281.5C37 279.015 34.9853 277 32.5 277C30.0147 277 28 279.015 28 281.5C28 283.985 30.0147 286 32.5 286Z" fill="#9D69FC"/>
</svg>
