<svg width="32" height="32" viewBox="0 0 32 32" fill="none" xmlns="http://www.w3.org/2000/svg">
<path d="M29.2507 10.28C29.2276 9.18954 29.0221 8.11063 28.6427 7.08802C28.3266 6.23607 27.8257 5.46471 27.176 4.82935C26.5385 4.17852 25.7643 3.67755 24.9094 3.36269C23.8872 2.98318 22.8087 2.77767 21.7187 2.75469C20.2467 2.68269 19.756 2.66669 16 2.66669C12.244 2.66669 11.7534 2.68269 10.28 2.74935C9.18955 2.77246 8.11063 2.97797 7.08802 3.35735C6.23607 3.67347 5.46471 4.17435 4.82935 4.82402C4.17852 5.46155 3.67755 6.23577 3.36269 7.09069C2.98151 8.11207 2.77419 9.19011 2.74935 10.28C2.68269 11.752 2.66669 12.2427 2.66669 16C2.66669 19.7574 2.68269 20.248 2.74935 21.72C2.77246 22.8105 2.97797 23.8894 3.35735 24.912C3.67347 25.764 4.17435 26.5353 4.82402 27.1707C5.46155 27.8215 6.23577 28.3225 7.09069 28.6374C8.1128 29.0169 9.1913 29.2224 10.2814 29.2454C11.748 29.312 12.244 29.328 16.0014 29.328C19.7587 29.328 20.2494 29.312 21.7214 29.2454C22.8118 29.2222 23.8907 29.0167 24.9134 28.6374C25.7611 28.3091 26.5311 27.8075 27.1739 27.1646C27.8168 26.5217 28.3184 25.7518 28.6467 24.904C29.0262 23.8819 29.2317 22.8034 29.2547 21.7134C29.3214 20.2467 29.3374 19.7507 29.3374 15.9934C29.3374 12.236 29.3174 11.752 29.2507 10.28ZM27.9174 21.6587C27.9008 22.6042 27.7259 23.5403 27.4 24.428C27.1389 25.1028 26.7398 25.7157 26.2283 26.2275C25.7167 26.7392 25.104 27.1386 24.4294 27.4C23.5411 27.7257 22.6046 27.9006 21.6587 27.9174C20.212 27.984 19.7334 28 16 28C12.2667 28 11.788 27.984 10.3414 27.9174C9.39583 27.9008 8.45977 27.7259 7.57202 27.4C6.89175 27.1492 6.27658 26.7487 5.77202 26.228C5.25167 25.7237 4.85116 25.1091 4.60002 24.4294C4.2743 23.5411 4.09944 22.6046 4.08269 21.6587C4.01602 20.212 4.00002 19.7334 4.00002 16C4.00002 12.2667 4.01602 11.788 4.08269 10.3414C4.09929 9.39583 4.27415 8.45977 4.60002 7.57202C4.85082 6.89175 5.25136 6.27658 5.77202 5.77202C6.27631 5.25167 6.89098 4.85116 7.57069 4.60002C8.45894 4.2743 9.39541 4.09944 10.3414 4.08269C11.7894 4.01602 12.2734 4.00002 16 4.00002C19.7267 4.00002 20.2107 4.01602 21.6587 4.08269C22.6042 4.09929 23.5403 4.27415 24.428 4.60002C25.1083 4.85082 25.7235 5.25136 26.228 5.77202C26.7484 6.27631 27.1489 6.89098 27.4 7.57069C27.7257 8.45894 27.9006 9.39541 27.9174 10.3414C27.984 11.788 28 12.2667 28 16C28 19.7334 27.984 20.212 27.9174 21.6587Z" fill="black"/>
<path d="M23.4413 7.28931C23.1899 7.28904 22.944 7.36338 22.7349 7.5029C22.5257 7.64242 22.3626 7.84086 22.2663 8.07309C22.17 8.30533 22.1447 8.56093 22.1937 8.80754C22.2426 9.05415 22.3637 9.28068 22.5415 9.45847C22.7193 9.63626 22.9458 9.7573 23.1924 9.80629C23.439 9.85528 23.6946 9.83 23.9269 9.73366C24.1591 9.63732 24.3575 9.47425 24.4971 9.26509C24.6366 9.05592 24.7109 8.81007 24.7106 8.55864C24.7099 8.22221 24.576 7.89976 24.3381 7.66186C24.1002 7.42397 23.7777 7.29001 23.4413 7.28931Z" fill="black"/>
<path d="M16 9.43066C14.7007 9.43066 13.4306 9.81595 12.3503 10.5378C11.27 11.2596 10.4279 12.2856 9.93073 13.486C9.43351 14.6864 9.30342 16.0073 9.55689 17.2816C9.81037 18.5559 10.436 19.7265 11.3548 20.6452C12.2735 21.564 13.4441 22.1896 14.7184 22.4431C15.9927 22.6966 17.3136 22.5665 18.514 22.0693C19.7144 21.5721 20.7404 20.73 21.4622 19.6497C22.184 18.5694 22.5693 17.2993 22.5693 16C22.5676 14.2582 21.8749 12.5883 20.6433 11.3567C19.4117 10.1251 17.7418 9.43243 16 9.43066ZM16 21.236C14.9644 21.236 13.9521 20.9289 13.091 20.3536C12.23 19.7782 11.5589 18.9605 11.1626 18.0037C10.7663 17.047 10.6626 15.9942 10.8646 14.9785C11.0666 13.9628 11.5653 13.0299 12.2976 12.2976C13.0299 11.5653 13.9628 11.0666 14.9785 10.8646C15.9942 10.6626 17.047 10.7663 18.0037 11.1626C18.9605 11.5589 19.7782 12.23 20.3536 13.091C20.9289 13.9521 21.236 14.9644 21.236 16C21.2342 17.3881 20.682 18.7189 19.7005 19.7005C18.7189 20.682 17.3881 21.2342 16 21.236Z" fill="black"/>
</svg>
