<svg width="32" height="32" viewBox="0 0 32 32" fill="none" xmlns="http://www.w3.org/2000/svg">
<path d="M5.9 2.22801C5.40105 2.19385 4.90039 2.26258 4.4291 2.42993C3.9578 2.59728 3.52592 2.85968 3.16024 3.20086C2.79456 3.54203 2.50288 3.95471 2.3033 4.41328C2.10371 4.87186 2.00048 5.36655 2 5.86667C1.99586 6.36158 2.09344 6.85206 2.28667 7.30769C2.47991 7.76333 2.76469 8.17442 3.12335 8.51545C3.48202 8.85649 3.90692 9.12021 4.37171 9.29026C4.8365 9.46031 5.33127 9.53306 5.82534 9.50401H5.86667C6.36362 9.53803 6.86227 9.46985 7.33185 9.30367C7.80143 9.13749 8.23196 8.87683 8.59689 8.53779C8.96181 8.19875 9.25338 7.78851 9.45359 7.33241C9.6538 6.8763 9.75842 6.384 9.76097 5.88589C9.76353 5.38778 9.66397 4.89444 9.46845 4.4363C9.27293 3.97816 8.98559 3.56496 8.62416 3.22219C8.26274 2.87942 7.8349 2.61436 7.36705 2.44337C6.8992 2.27238 6.40128 2.19908 5.904 2.22801H5.9ZM5.86667 8.17067H5.82534C5.50444 8.19491 5.18202 8.15196 4.87865 8.04457C4.57529 7.93719 4.29765 7.76772 4.06346 7.547C3.82927 7.32628 3.64368 7.05914 3.51854 6.76266C3.39341 6.46618 3.33146 6.14686 3.33668 5.82509C3.34189 5.50332 3.41414 5.18617 3.54882 4.8939C3.68349 4.60162 3.87764 4.34064 4.11885 4.12762C4.36006 3.9146 4.64305 3.75422 4.94973 3.65671C5.25641 3.55921 5.58006 3.52673 5.9 3.56134C6.22204 3.5318 6.54669 3.57003 6.85306 3.67357C7.15943 3.7771 7.44071 3.94365 7.67881 4.16249C7.91691 4.38133 8.10653 4.6476 8.23548 4.94417C8.36443 5.24074 8.42984 5.56103 8.4275 5.88441C8.42516 6.20779 8.35513 6.52709 8.2219 6.82176C8.08868 7.11644 7.89522 7.37994 7.65399 7.59531C7.41275 7.81068 7.12908 7.97315 6.82125 8.07224C6.51342 8.17134 6.18825 8.20487 5.86667 8.17067Z" fill="black"/>
<path d="M8.72128 11.2413H3.00395C2.82714 11.2413 2.65757 11.3116 2.53254 11.4366C2.40752 11.5616 2.33728 11.7312 2.33728 11.908V29.108C2.33728 29.2848 2.40752 29.4544 2.53254 29.5794C2.65757 29.7044 2.82714 29.7747 3.00395 29.7747H8.72128C8.89809 29.7747 9.06766 29.7044 9.19268 29.5794C9.31771 29.4544 9.38795 29.2848 9.38795 29.108V11.908C9.38795 11.7312 9.31771 11.5616 9.19268 11.4366C9.06766 11.3116 8.89809 11.2413 8.72128 11.2413ZM8.05461 28.4413H3.67061V12.5747H8.05461V28.4413Z" fill="black"/>
<path d="M22.7521 10.8374C21.0981 10.7707 19.4852 11.3623 18.2667 12.4827V11.908C18.2667 11.7312 18.1965 11.5616 18.0715 11.4366C17.9464 11.3116 17.7769 11.2414 17.6001 11.2414H11.8854C11.7952 11.2413 11.7059 11.2595 11.623 11.2949C11.54 11.3303 11.4651 11.3821 11.4028 11.4473C11.3405 11.5125 11.292 11.5897 11.2604 11.6741C11.2288 11.7586 11.2146 11.8486 11.2187 11.9387C11.2894 13.516 11.2187 28.9467 11.2187 29.1027C11.2187 29.2795 11.289 29.4491 11.414 29.5741C11.539 29.6991 11.7086 29.7694 11.8854 29.7694H17.6001C17.7769 29.7694 17.9464 29.6991 18.0715 29.5741C18.1965 29.4491 18.2667 29.2795 18.2667 29.1027V19.5027C18.2503 19.1158 18.2953 18.7288 18.4001 18.356C18.5681 17.8735 18.8805 17.4543 19.2947 17.1553C19.709 16.8562 20.2052 16.6917 20.7161 16.684C21.2667 16.684 22.9441 16.684 22.9441 19.9067V29.1067C22.9441 29.2835 23.0143 29.4531 23.1393 29.5781C23.2643 29.7031 23.4339 29.7734 23.6107 29.7734H29.3334C29.5102 29.7734 29.6798 29.7031 29.8048 29.5781C29.9298 29.4531 30.0001 29.2835 30.0001 29.1067V19.24C30.0001 13.98 27.2894 10.8374 22.7521 10.8374ZM28.6667 28.4374H24.2841V19.904C24.2841 15.94 22.0534 15.348 20.7227 15.348C19.9448 15.3483 19.1859 15.5891 18.55 16.0373C17.9142 16.4856 17.4324 17.1194 17.1707 17.852C16.9864 18.381 16.9062 18.9406 16.9347 19.5V28.4334H12.5547C12.5667 25.6894 12.6081 15.5614 12.5667 12.5667H16.9334V14.3374C16.9332 14.4813 16.9796 14.6215 17.0657 14.7369C17.1518 14.8524 17.273 14.9368 17.411 14.9776C17.5491 15.0184 17.6967 15.0135 17.8317 14.9634C17.9667 14.9134 18.0819 14.821 18.1601 14.7C18.6179 13.8961 19.2888 13.2342 20.0988 12.7872C20.9088 12.3402 21.8265 12.1255 22.7507 12.1667C26.5094 12.1667 28.6654 14.7454 28.6654 19.24L28.6667 28.4374Z" fill="black"/>
</svg>
