<svg width="16" height="16" viewBox="0 0 16 16" fill="none" xmlns="http://www.w3.org/2000/svg">
<g id="Frame">
<path id="Vector" d="M12.6661 7.3335C12.2979 7.3335 11.9994 7.63197 11.9994 8.00016C11.9994 8.36835 12.2979 8.66683 12.6661 8.66683C13.0343 8.66683 13.3328 8.36835 13.3328 8.00016C13.3328 7.63197 13.0343 7.3335 12.6661 7.3335Z" fill="black" stroke="black"/>
<path id="Vector_2" d="M8.00053 7.3335C7.63234 7.3335 7.33386 7.63197 7.33386 8.00016C7.33386 8.36835 7.63234 8.66683 8.00053 8.66683C8.36872 8.66683 8.6672 8.36835 8.6672 8.00016C8.6672 7.63197 8.36872 7.3335 8.00053 7.3335Z" fill="black" stroke="black"/>
<path id="Vector_3" d="M3.33329 7.3335C2.9651 7.3335 2.66663 7.63197 2.66663 8.00016C2.66663 8.36835 2.9651 8.66683 3.33329 8.66683C3.70148 8.66683 3.99996 8.36835 3.99996 8.00016C3.99996 7.63197 3.70148 7.3335 3.33329 7.3335Z" fill="black" stroke="black"/>
</g>
</svg>
