<svg width="32" height="32" viewBox="0 0 32 32" fill="none" xmlns="http://www.w3.org/2000/svg">
<path d="M12.4933 31.3334C9.85249 31.3334 7.31981 30.2843 5.45245 28.4169C3.58508 26.5496 2.53601 24.0169 2.53601 21.376C2.53601 18.7352 3.58508 16.2025 5.45245 14.3351C7.31981 12.4678 9.85249 11.4187 12.4933 11.4187C12.6752 11.4179 12.8506 11.4864 12.9838 11.6102C13.117 11.734 13.1981 11.9039 13.2107 12.0854V17.152C13.1978 17.3245 13.1234 17.4867 13.001 17.609C12.8787 17.7314 12.7165 17.8058 12.544 17.8187C11.8381 17.8118 11.1461 18.0149 10.5558 18.4021C9.96555 18.7894 9.50369 19.3433 9.2289 19.9936C8.9541 20.6438 8.87877 21.3611 9.01246 22.0543C9.14615 22.7475 9.48283 23.3853 9.97975 23.8867C10.4767 24.3881 11.1114 24.7306 11.8033 24.8705C12.4953 25.0105 13.2132 24.9416 13.8659 24.6727C14.5187 24.4038 15.0767 23.9469 15.4693 23.3602C15.8618 22.7735 16.0712 22.0833 16.0707 21.3774C16.0694 21.3552 16.0694 21.3329 16.0707 21.3107V1.33335C16.0707 1.15654 16.1409 0.986973 16.2659 0.861949C16.391 0.736925 16.5605 0.666687 16.7373 0.666687H21.7867C21.9635 0.666687 22.1331 0.736925 22.2581 0.861949C22.3831 0.986973 22.4533 1.15654 22.4533 1.33335C22.453 3.01439 23.1197 4.62688 24.3071 5.81681C25.4946 7.00673 27.1056 7.67684 28.7867 7.68002C28.9635 7.68002 29.1331 7.75026 29.2581 7.87528C29.3831 8.00031 29.4533 8.16988 29.4533 8.34669L29.4667 13.3334C29.4606 13.5145 29.3856 13.6864 29.257 13.814C29.1283 13.9417 28.9558 14.0154 28.7747 14.02C26.5553 14.0244 24.3742 13.4411 22.4533 12.3294V21.3814C22.4491 24.0209 21.3981 26.551 19.531 28.4166C17.6638 30.2823 15.1329 31.3312 12.4933 31.3334ZM11.8773 12.78C10.2028 12.9005 8.59979 13.5073 7.26521 14.5259C5.93062 15.5446 4.92251 16.9307 4.3646 18.5142C3.8067 20.0977 3.72328 21.8097 4.12461 23.4399C4.52593 25.0702 5.39451 26.5478 6.62375 27.6913C7.85298 28.8349 9.38937 29.5947 11.0443 29.8774C12.6992 30.1601 14.4007 29.9534 15.9399 29.2827C17.479 28.6121 18.7888 27.5066 19.7086 26.1021C20.6283 24.6975 21.1179 23.0549 21.1173 21.376V11.1014C21.1172 10.9788 21.1509 10.8585 21.2148 10.7538C21.2786 10.6492 21.37 10.5641 21.479 10.508C21.588 10.4519 21.7104 10.427 21.8326 10.4359C21.9549 10.4449 22.0723 10.4873 22.172 10.5587C23.9169 11.8166 25.9856 12.5481 28.1333 12.6667L28.1253 8.98669C26.3262 8.82857 24.6402 8.04151 23.3637 6.76378C22.0872 5.48604 21.3017 3.79936 21.1453 2.00002H17.4013V21.376C17.4027 21.3996 17.4027 21.4231 17.4013 21.4467C17.3878 22.3853 17.1047 23.3002 16.5858 24.0824C16.067 24.8646 15.3342 25.4812 14.4747 25.8587C13.6153 26.2362 12.6654 26.3586 11.7384 26.2115C10.8113 26.0644 9.94606 25.6538 9.24574 25.0288C8.54542 24.4037 8.03955 23.5905 7.78838 22.6861C7.53721 21.7816 7.55134 20.824 7.82908 19.9274C8.10682 19.0307 8.63646 18.2328 9.35491 17.6287C10.0734 17.0246 10.9503 16.6398 11.8813 16.52L11.8773 12.78Z" fill="black"/>
</svg>
