<svg width="32" height="32" viewBox="0 0 32 32" fill="none" xmlns="http://www.w3.org/2000/svg">
<g clip-path="url(#clip0_1_34)">
<path d="M16 27.4C15.6 27.4 6.29469 27.392 3.84669 26.7334C3.08429 26.5288 2.38912 26.1273 1.83095 25.5691C1.27279 25.0109 0.871264 24.3157 0.666687 23.5534C0.20425 21.0626 -0.0189877 18.5333 2.0147e-05 16C-0.0189506 13.4663 0.204287 10.9366 0.666687 8.44535C0.87106 7.68271 1.27249 6.98726 1.83067 6.42885C2.38885 5.87043 3.08413 5.46871 3.84669 5.26402C6.29469 4.60802 15.6054 4.59735 16 4.59735C16.3947 4.59735 25.7054 4.60535 28.1534 5.26402C28.9154 5.46982 29.61 5.87191 30.1681 6.43015C30.7261 6.9884 31.1279 7.68326 31.3334 8.44535C31.7946 10.9367 32.0178 13.4664 32 16C32.0178 18.5337 31.7946 21.0633 31.3334 23.5547C31.1275 24.3173 30.7251 25.0124 30.1664 25.5707C29.6076 26.129 28.9121 26.5308 28.1494 26.736C25.7054 27.392 16.4 27.4 16 27.4ZM16 5.93335C15.904 5.93335 6.47202 5.94135 4.19069 6.55202C3.65404 6.69617 3.16472 6.97888 2.7718 7.3718C2.37888 7.76472 2.09617 8.25403 1.95202 8.79068C1.52522 11.1697 1.31813 13.583 1.33335 16C1.31813 18.417 1.52522 20.8303 1.95202 23.2094C2.09617 23.746 2.37888 24.2353 2.7718 24.6282C3.16472 25.0212 3.65404 25.3039 4.19069 25.448C6.47202 26.0587 15.904 26.0667 16 26.0667C16.096 26.0667 25.528 26.0587 27.8094 25.448C28.346 25.3039 28.8353 25.0212 29.2282 24.6282C29.6212 24.2353 29.9039 23.746 30.048 23.2094C30.4741 20.8302 30.6812 18.417 30.6667 16C30.6812 13.5831 30.4741 11.1698 30.048 8.79068C29.9039 8.25403 29.6212 7.76472 29.2282 7.3718C28.8353 6.97888 28.346 6.69617 27.8094 6.55202C25.528 5.94135 16.0947 5.93335 16 5.93335ZM12.9334 21.2667C12.7565 21.2667 12.587 21.1964 12.4619 21.0714C12.3369 20.9464 12.2667 20.7768 12.2667 20.6V11.4C12.2667 11.283 12.2975 11.168 12.356 11.0667C12.4145 10.9653 12.4987 10.8812 12.6 10.8227C12.7014 10.7642 12.8163 10.7334 12.9334 10.7334C13.0504 10.7334 13.1653 10.7642 13.2667 10.8227L21.2334 15.4227C21.3347 15.4812 21.4188 15.5654 21.4774 15.6667C21.5359 15.768 21.5667 15.883 21.5667 16C21.5667 16.117 21.5359 16.232 21.4774 16.3333C21.4188 16.4347 21.3347 16.5188 21.2334 16.5774L13.2667 21.1774C13.1653 21.2359 13.0504 21.2667 12.9334 21.2667ZM13.6 12.5547V19.4454L19.5667 16L13.6 12.5547Z" fill="black"/>
</g>
<defs>
<clipPath id="clip0_1_34">
<rect width="32" height="32" fill="white"/>
</clipPath>
</defs>
</svg>
